HIERARCHY
ROOT Hips
{
	OFFSET 0.00000 0.00000 0.00000
	CHANNELS 6 Xposition Yposition Zposition Zrotation Yrotation Xrotation 
	JOINT LHipJoint
	{
		OFFSET 0 0 0
		CHANNELS 3 Zrotation Yrotation Xrotation
		JOINT LeftUpLeg
		{
			OFFSET 1.52977 -1.71332 0.88991
			CHANNELS 3 Zrotation Yrotation Xrotation
			JOINT LeftLeg
			{
				OFFSET 2.23949 -6.15296 0.00000
				CHANNELS 3 Zrotation Yrotation Xrotation
				JOINT LeftFoot
				{
					OFFSET 2.68396 -7.37412 0.00000
					CHANNELS 3 Zrotation Yrotation Xrotation
					JOINT LeftToeBase
					{
						OFFSET 0.20538 -0.56428 2.52710
						CHANNELS 3 Zrotation Yrotation Xrotation
						End Site
						{
							OFFSET 0.00000 -0.00000 1.29919
						}
					}
				}
			}
		}
	}
	JOINT RHipJoint
	{
		OFFSET 0 0 0
		CHANNELS 3 Zrotation Yrotation Xrotation
		JOINT RightUpLeg
		{
			OFFSET -1.45689 -1.71333 0.88991
			CHANNELS 3 Zrotation Yrotation Xrotation
			JOINT RightLeg
			{
				OFFSET -2.36700 -6.50329 0.00000
				CHANNELS 3 Zrotation Yrotation Xrotation
				JOINT RightFoot
				{
					OFFSET -2.69814 -7.41308 0.00000
					CHANNELS 3 Zrotation Yrotation Xrotation
					JOINT RightToeBase
					{
						OFFSET -0.18734 -0.51471 2.37479
						CHANNELS 3 Zrotation Yrotation Xrotation
						End Site
						{
							OFFSET -0.00000 -0.00000 1.22113
						}
					}
				}
			}
		}
	}
	JOINT LowerBack
	{
		OFFSET 0 0 0
		CHANNELS 3 Zrotation Yrotation Xrotation
		JOINT Spine
		{
			OFFSET 0.04294 2.14638 -0.31163
			CHANNELS 3 Zrotation Yrotation Xrotation
			JOINT Spine1
			{
				OFFSET -0.00400 2.17216 0.01486
				CHANNELS 3 Zrotation Yrotation Xrotation
				JOINT Neck
				{
					OFFSET 0 0 0
					CHANNELS 3 Zrotation Yrotation Xrotation
					JOINT Neck1
					{
						OFFSET 0.03869 1.76598 0.14916
						CHANNELS 3 Zrotation Yrotation Xrotation
						JOINT Head
						{
							OFFSET -0.00760 1.75513 -0.18948
							CHANNELS 3 Zrotation Yrotation Xrotation
							End Site
							{
								OFFSET -0.00601 1.82444 -0.08310
							}
						}
					}
				}
				JOINT LeftShoulder
				{
					OFFSET 0 0 0
					CHANNELS 3 Zrotation Yrotation Xrotation
					JOINT LeftArm
					{
						OFFSET 3.73696 0.92058 0.01733
						CHANNELS 3 Zrotation Yrotation Xrotation
						JOINT LeftForeArm
						{
							OFFSET 5.22771 -0.00000 0.00000
							CHANNELS 3 Zrotation Yrotation Xrotation
							JOINT LeftHand
							{
								OFFSET 3.45251 -0.00000 0.00000
								CHANNELS 3 Zrotation Yrotation Xrotation
								JOINT LeftFingerBase
								{
									OFFSET 0 0 0
									CHANNELS 3 Zrotation Yrotation Xrotation
									JOINT LeftHandIndex1
									{
										OFFSET 0.55212 -0.00000 0.00000
										CHANNELS 3 Zrotation Yrotation Xrotation
										End Site
										{
											OFFSET 0.44513 -0.00000 0.00000
										}
									}
								}
								JOINT LThumb
								{
									OFFSET 0 0 0
									CHANNELS 3 Zrotation Yrotation Xrotation
									End Site
									{
										OFFSET 0.45193 -0.00000 0.45193
									}
								}
							}
						}
					}
				}
				JOINT RightShoulder
				{
					OFFSET 0 0 0
					CHANNELS 3 Zrotation Yrotation Xrotation
					JOINT RightArm
					{
						OFFSET -3.63819 0.83094 -0.13694
						CHANNELS 3 Zrotation Yrotation Xrotation
						JOINT RightForeArm
						{
							OFFSET -5.23980 -0.00000 -0.00000
							CHANNELS 3 Zrotation Yrotation Xrotation
							JOINT RightHand
							{
								OFFSET -3.48042 -0.00000 -0.00000
								CHANNELS 3 Zrotation Yrotation Xrotation
								JOINT RightFingerBase
								{
									OFFSET 0 0 0
									CHANNELS 3 Zrotation Yrotation Xrotation
									JOINT RightHandIndex1
									{
										OFFSET -0.61871 -0.00000 0.00000
										CHANNELS 3 Zrotation Yrotation Xrotation
										End Site
										{
											OFFSET -0.49882 -0.00000 0.00000
										}
									}
								}
								JOINT RThumb
								{
									OFFSET 0 0 0
									CHANNELS 3 Zrotation Yrotation Xrotation
									End Site
									{
										OFFSET -0.50644 -0.00000 0.50644
									}
								}
							}
						}
					}
				}
			}
		}
	}
}
MOTION
Frames: 15
Frame Time: 0.133333
0.00 0.00 0.00 0 0 0 0 0 0 -21 0 0 0 0 0 0 0 0 0 0 0 0 0 0 21 0 0 0 0 0 0 0 0 0 0 0 0 0 0 0 0 0 0 0 0 0 0 -16 0 0 21 0 0 11 0 0 0 -8 0 0 0 0 0 0 0 0 0 0 0 0 0 0 0 0 0 0 0 0 8 0 0 0 0 0 0 0 0 0 0 0 0 0 0 0 0 0
0.00 0.00 0.00 -27.4570 83.1226 6.0551 0.0000 0.0000 0.0000 -29.3855 3.1125 -58.1551 1.5295 7.8083 22.1332 -0.5017 -13.2199 0.0721 0.0311 -1.1379 -3.1285 0.0000 0.0000 0.0000 1.5183 21.3709 -62.4927 -6.8534 -15.2072 48.3178 -0.4818 2.0608 -12.5631 -0.8592 5.9109 -16.5262 0.5296 -0.7521 25.0547 -0.3822 -0.5332 5.0967 -0.5782 -0.1306 -8.2971 1.7931 0.4125 3.2680 0.5153 1.1369 -17.9633 -0.2214 0.5497 -5.9604 -0.0000 -0.0000 0.0000 -83.8944 -3.6830 33.7655 21.3551 -32.2405 -6.2383 -0.0000 0.0000 -25.1508 21.1168 8.4073 3.2319 -7.1250 0.0000 -0.0000 -4.9903 38.9371 0.7476 -0.0000 -0.0000 0.0000 87.8876 2.8009 30.4453 -20.0095 30.6537 -5.5362 0.0000 -0.0000 -4.4192 -21.6066 -6.1032 2.4113 7.1250 -0.0000 -0.0000 4.3210 -36.5111 0.9041
0.00 0.00 0.00 -30.1815 83.0502 2.7740 0.0000 0.0000 0.0000 -29.2944 2.7891 -58.1967 1.3716 7.4118 20.9412 -0.5105 -12.8008 1.9826 0.0140 -0.7645 -2.1010 0.0000 0.0000 0.0000 2.6951 20.9902 -63.5859 -11.8797 -18.3393 65.6070 -0.3861 0.4521 -11.5884 -0.7476 5.5228 -15.4059 0.8916 -0.6594 25.3138 -0.2202 -0.3064 5.0053 -0.6785 -0.0329 -8.5300 1.7844 0.4435 3.5296 0.5463 1.2302 -18.7825 -0.2220 0.5985 -6.2650 -0.0000 -0.0000 0.0000 -83.6106 -3.6604 32.9035 21.7525 -32.6962 -6.4516 -0.0000 0.0000 -25.2236 21.5179 8.2651 3.2439 -7.1250 0.0000 -0.0000 -4.6278 38.8156 0.7068 -0.0000 -0.0000 0.0000 88.0580 2.2335 30.0117 -19.7779 30.3739 -5.4186 0.0000 -0.0000 -4.1580 -21.3861 -6.0539 2.3650 7.1250 -0.0000 -0.0000 4.5013 -36.4459 0.9492
0.00 0.00 0.00 -34.6103 84.1132 -6.2580 0.0000 0.0000 0.0000 -20.0280 -4.5027 -55.7593 0.5805 4.8788 13.5633 0.4663 1.1816 12.5435 0.0045 0.4309 1.1839 0.0000 0.0000 0.0000 15.6502 18.2181 -39.4291 -8.8293 -16.6966 55.4979 -1.6142 -1.0746 -24.4299 -0.5197 4.6203 -12.8288 0.5569 -0.6813 26.5221 -0.2764 -0.3509 5.5703 -0.5361 -0.0167 -8.5120 2.1466 0.5005 3.8576 0.1004 1.2491 -18.2717 -0.4233 0.6096 -6.1546 0.0000 0.0000 0.0000 -83.8741 -2.8862 32.2979 20.9571 -31.7782 -6.0273 -0.0000 0.0000 -24.0953 21.3189 7.7224 3.0019 -7.1250 0.0000 -0.0000 -4.7350 38.2224 0.7924 0.0000 0.0000 0.0000 88.3389 1.8141 31.4416 -20.4720 31.2068 -5.7739 0.0000 -0.0000 -4.7982 -21.2948 -6.2295 2.4219 7.1250 -0.0000 -0.0000 4.5953 -36.6283 0.9486
0.00 0.00 0.00 -62.9185 86.1939 -41.8814 0.0000 0.0000 0.0000 -7.0031 -9.3086 -59.7199 2.5963 10.0109 29.0121 0.4248 2.9756 11.6497 0.1570 -2.5533 -7.0375 0.0000 0.0000 0.0000 22.6915 16.0721 -41.3841 -8.7612 -16.6516 55.2607 -3.0152 -2.9306 -33.9658 -0.0583 -1.5585 4.2869 1.1137 -0.5624 30.6619 0.0285 0.2920 7.4535 -0.7592 0.3887 -8.4072 1.8402 -0.0849 4.5006 1.3075 0.6239 -18.1322 0.0502 0.2274 -6.2349 0.0000 0.0000 0.0000 -83.6637 -3.5761 33.4956 20.0891 -30.7496 -5.5768 -0.0000 0.0000 -23.2531 21.4357 7.7484 3.0300 -7.1250 0.0000 -0.0000 -4.6381 38.2584 0.7720 0.0000 0.0000 0.0000 87.8171 2.9503 31.8744 -19.8816 30.4994 -5.4711 0.0000 -0.0000 -4.1274 -21.7929 -6.2500 2.4924 7.1250 -0.0000 -0.0000 4.1783 -36.6789 0.8570
0.00 0.00 0.00 -78.9679 86.8053 -57.8817 0.0000 0.0000 0.0000 -5.5479 -10.5654 -63.9836 6.6310 15.0132 47.4647 -0.0220 -3.1517 -0.7016 0.9068 -6.0682 -16.9825 0.0000 0.0000 0.0000 22.0852 17.9587 -43.8410 -8.9832 -16.7969 56.0319 -2.7155 -5.2769 -33.3230 -0.0691 -1.6964 4.6672 1.3060 -0.7664 30.4787 0.1823 0.1104 7.4207 -0.6308 0.3035 -8.3613 1.7371 -0.2866 4.3434 1.9598 0.4626 -18.3313 0.2849 0.1108 -6.2736 0.0000 0.0000 0.0000 -84.2592 -3.0117 33.5010 19.5765 -30.1287 -5.3171 -0.0000 0.0000 -23.2317 21.2424 7.6515 2.9628 -7.1250 0.0000 -0.0000 -4.7922 38.1415 0.8115 0.0000 0.0000 0.0000 87.1935 2.7422 31.5531 -19.5159 30.0547 -5.2868 0.0000 -0.0000 -3.8899 -21.8541 -6.2425 2.4971 7.1250 -0.0000 -0.0000 4.1260 -36.6744 0.8467
0.00 0.00 0.00 -93.6744 86.9270 -72.0060 0.0000 0.0000 0.0000 -4.7679 -12.0064 -64.5896 12.4785 18.5857 67.4975 0.3155 0.2520 -10.7045 1.2790 -7.1671 -20.2113 0.0000 0.0000 0.0000 21.0460 19.6762 -46.3549 -8.5373 -16.5006 54.4758 -2.0431 -7.6161 -30.6042 -0.0947 -1.9845 5.4629 1.6612 -1.0538 30.5511 0.2024 -0.1565 7.1619 -0.7166 0.1631 -8.6971 1.5757 -0.3161 4.2472 2.4263 0.5315 -18.9459 0.4553 0.1265 -6.4543 -0.0000 -0.0000 0.0000 -84.6080 -2.1630 33.1672 18.9041 -29.2994 -4.9838 -0.0000 0.0000 -22.8658 20.7616 7.8655 2.9698 -7.1250 0.0000 -0.0000 -5.2284 38.3356 0.8609 -0.0000 -0.0000 0.0000 86.5674 2.3787 30.9910 -19.0824 29.5210 -5.0714 0.0000 -0.0000 -3.4774 -21.5847 -6.2561 2.4686 7.1250 -0.0000 -0.0000 4.3541 -36.6734 0.8938
0.00 0.00 0.00 -99.2582 88.2701 -74.2715 0.0000 0.0000 0.0000 -15.4011 -5.6599 -41.7533 10.7252 17.7980 61.8859 0.4388 1.6915 -13.2424 0.8509 -5.8831 -16.4456 0.0000 0.0000 0.0000 13.6886 23.7856 -53.9860 -5.3842 -13.8039 42.4574 0.4038 -15.7898 -17.7033 -0.1880 -2.7927 7.7020 0.9704 -1.4276 27.4917 -0.1006 -1.0503 6.3030 -0.3490 -0.3024 -8.1888 0.7224 -0.3035 3.9721 3.0563 0.5433 -18.6217 0.7974 0.1447 -6.3032 0.0000 0.0000 0.0000 -85.2629 -2.7036 32.1234 18.3637 -28.6204 -4.7222 -0.0000 0.0000 -21.1625 20.9008 9.0907 3.4528 -7.1250 0.0000 -0.0000 -5.2655 39.6462 0.6970 0.0000 0.0000 0.0000 86.5741 1.5260 29.3962 -17.8134 27.9175 -4.4615 0.0000 -0.0000 -2.7648 -21.5132 -6.1742 2.4276 7.1250 -0.0000 -0.0000 4.4062 -36.5818 0.9144
0.00 0.00 0.00 -40.8941 87.2441 -16.1569 0.0000 0.0000 0.0000 -20.8628 -4.6680 -35.8591 5.6019 14.0311 43.3623 1.7066 2.5426 -25.7058 0.8888 -6.0095 -16.8119 0.0000 0.0000 0.0000 9.3217 24.5372 -59.2105 -4.4299 -12.7115 38.2979 1.0655 -17.9850 -8.5812 -0.2168 -2.9972 8.2710 0.0759 -1.0869 27.3118 -0.3550 -0.9146 6.1992 -0.1616 -0.2351 -8.2024 0.8630 -0.0356 4.0998 2.6241 0.8330 -18.4098 0.6174 0.3032 -6.2600 -0.0000 -0.0000 0.0000 -84.8607 -2.7689 32.5140 18.4634 -28.7465 -4.7700 -0.0000 0.0000 -21.1141 20.6998 9.8097 3.6836 -7.1250 0.0000 -0.0000 -5.5407 40.3914 0.6318 -0.0000 -0.0000 0.0000 87.1085 1.3788 30.2091 -18.9792 29.3928 -5.0206 0.0000 -0.0000 -3.8363 -21.3384 -6.0415 2.3545 7.1250 -0.0000 -0.0000 4.5402 -36.4301 0.9592
0.00 0.00 0.00 -19.9840 85.2273 5.0912 0.0000 0.0000 0.0000 -24.6760 -3.3344 -47.3546 5.7148 14.1461 43.8259 1.5821 -0.2049 -23.7389 0.0136 -0.7539 -2.0720 0.0000 0.0000 0.0000 3.3094 22.4385 -68.3196 -9.4919 -17.1140 57.7761 -0.2132 -5.3922 -12.3586 -0.5676 4.8251 -13.4104 -0.0982 -0.8425 28.0951 -0.8137 -0.7016 6.1729 -0.6401 -0.1349 -8.6235 0.6368 0.1101 4.2712 2.0241 0.9175 -18.7856 0.4586 0.4026 -6.4074 -0.0000 -0.0000 0.0000 -83.9551 -3.8637 31.8714 18.4697 -28.7544 -4.7730 -0.0000 0.0000 -20.6785 21.2124 9.8089 3.7830 -7.1250 0.0000 -0.0000 -5.0925 40.4349 0.5749 -0.0000 -0.0000 0.0000 88.2059 1.2132 31.2248 -19.7425 30.3308 -5.4007 0.0000 -0.0000 -3.9588 -21.2429 -6.0873 2.3606 7.1250 -0.0000 -0.0000 4.6247 -36.4737 0.9723
0.00 0.00 0.00 -18.0320 85.4828 8.0201 0.0000 0.0000 0.0000 -24.4740 -5.1721 -50.5592 5.5621 13.9901 43.1977 1.2257 -0.0845 -20.9134 0.0000 -0.0306 -0.0841 0.0000 0.0000 0.0000 3.1683 21.7556 -67.9460 -15.1191 -19.4190 75.5952 -0.4791 -5.4583 -16.2131 -0.6237 5.0538 -14.0621 0.2065 -0.7783 27.9970 -0.8592 -0.5731 5.7994 -0.9107 -0.0956 -8.9996 0.6504 0.0648 4.2671 1.8523 0.8644 -19.3946 0.4042 0.3964 -6.6001 -0.0000 0.0000 0.0000 -83.8670 -3.6946 31.4725 18.1718 -28.3766 -4.6306 -0.0000 0.0000 -20.4292 21.4426 9.8061 3.8269 -7.1250 0.0000 -0.0000 -4.8907 40.4521 0.5499 -0.0000 0.0000 0.0000 88.0905 0.8245 31.8108 -19.1454 29.5990 -5.1025 0.0000 -0.0000 -3.4170 -20.7755 -6.0610 2.2939 7.1250 -0.0000 -0.0000 5.0143 -36.4195 1.0613
0.00 0.00 0.00 -480.9610 87.1963 -456.1290 0.0000 0.0000 0.0000 -4.0332 -11.6261 -65.8477 18.8718 19.9695 86.6999 0.1188 -4.2102 -6.3741 1.3342 -7.3142 -20.6496 0.0000 0.0000 0.0000 17.2993 23.6985 -51.6808 -6.6529 -15.0325 47.5492 -0.7843 -10.7475 -23.8612 -0.2337 -3.1114 8.5890 0.9454 -1.0451 29.7860 -0.4072 -0.5984 5.4917 -0.8219 -0.1109 -10.2444 0.1965 -0.0784 6.5097 3.1867 0.9175 -20.2340 0.9066 0.3185 -7.2772 0.0000 0.0000 0.0000 -83.4203 -0.6248 32.3130 16.9123 -26.7421 -4.0478 -0.0000 0.0000 -21.3593 21.2206 8.9458 3.4552 -7.1250 0.0000 -0.0000 -4.9691 39.5179 0.6733 0.0000 0.0000 0.0000 86.2006 2.5639 31.3255 -18.4323 28.7072 -4.7551 0.0000 -0.0000 -2.4091 -20.5104 -6.2541 2.3337 7.1250 -0.0000 -0.0000 5.2569 -36.6096 1.0885
0.00 0.00 0.00 -534.7550 88.3856 -514.3910 0.0000 0.0000 0.0000 -12.9270 -8.3304 -44.9805 16.3877 19.6842 79.3847 0.1073 -2.6557 7.7588 0.0593 -1.5708 -4.3210 0.0000 0.0000 0.0000 19.1015 14.3559 -51.6524 -4.6884 -13.0241 39.4587 -0.6461 -1.6400 -15.8640 -0.0013 0.2308 -0.6340 1.2583 -1.1061 27.5804 -0.1863 -0.5725 6.0208 -0.7704 -0.0860 -8.5474 0.9646 -0.2973 6.1200 2.3759 0.3838 -17.4396 0.5536 0.0585 -6.2999 -0.0000 -0.0000 0.0000 -83.4623 -1.4584 34.7241 20.6802 -31.4532 -5.8822 -0.0000 0.0000 -26.4548 19.8785 9.3991 3.3793 -7.1250 0.0000 -0.0000 -6.1957 39.8888 0.7841 -0.0000 -0.0000 0.0000 87.5588 2.7728 30.2468 -19.4810 30.0120 -5.2693 0.0000 -0.0000 -4.3625 -20.4341 -6.8358 2.5392 7.1250 -0.0000 -0.0000 5.3855 -37.2220 1.0344
0.00 0.00 0.00 -809.1350 88.9680 -784.3770 0.0000 0.0000 0.0000 -22.3709 -9.5125 -50.7512 3.2069 11.0226 32.3563 0.1415 -2.0500 -6.6902 0.0415 1.3143 3.6140 0.0000 0.0000 0.0000 15.0709 13.0519 -50.7204 -18.4436 -19.9418 85.4451 -0.2293 -1.7237 -9.8469 -0.8781 5.9739 -16.7086 0.8867 -0.9151 27.2874 -0.6731 -0.5425 5.6041 -1.1065 -0.0959 -8.8700 0.6912 -0.2141 6.0484 2.3820 0.4471 -17.2775 0.5963 0.1049 -6.2361 -0.0000 -0.0000 0.0000 -83.9473 -1.7951 33.5267 19.5845 -30.1384 -5.3211 -0.0000 0.0000 -24.2280 20.7936 9.1446 3.4536 -7.1250 0.0000 -0.0000 -5.3656 39.6947 0.7040 -0.0000 -0.0000 0.0000 87.1657 1.9558 31.5752 -19.5249 30.0656 -5.2912 0.0000 -0.0000 -3.7088 -20.1039 -6.4382 2.3503 7.1250 -0.0000 -0.0000 5.6187 -36.7812 1.1403
0.00 0.00 0.00 -895.9340 88.8725 -873.2710 0.0000 0.0000 0.0000 -17.4072 -6.8120 -36.4932 10.7581 17.8147 61.9936 -0.0595 -4.5765 3.2745 0.1974 -2.8613 -7.8929 0.0000 0.0000 0.0000 20.3893 13.5427 -55.8753 -4.3724 -12.6401 38.0358 -0.1635 -6.1067 -12.2066 -0.1407 -2.4171 6.6598 1.1964 -1.2020 26.7133 -0.6557 -0.7996 5.9372 -1.1818 -0.2057 -8.2186 0.3909 -0.1302 6.1226 2.3073 0.5206 -17.3657 0.6174 0.1665 -6.2772 0.0000 0.0000 0.0000 -84.6995 -0.7576 35.3700 19.3309 -29.8277 -5.1944 -0.0000 0.0000 -24.2160 20.0498 10.2978 3.7327 -7.1250 0.0000 -0.0000 -6.1834 40.8492 0.6357 0.0000 0.0000 0.0000 86.5762 1.9227 32.3429 -19.9215 30.5476 -5.4914 0.0000 -0.0000 -4.4280 -21.1052 -6.6309 2.5519 7.1250 -0.0000 -0.0000 4.7962 -37.0452 0.9413
